<?xml version="1.0" standalone="no"?>
<!DOCTYPE svg PUBLIC "-//W3C//DTD SVG 20010904//EN"
 "http://www.w3.org/TR/2001/REC-SVG-20010904/DTD/svg10.dtd">
<svg version="1.0" xmlns="http://www.w3.org/2000/svg"
 width="512.000000pt" height="512.000000pt" viewBox="0 0 512.000000 512.000000"
 preserveAspectRatio="xMidYMid meet">
<metadata>
Created by potrace 1.14, written by Peter Selinger 2001-2017
</metadata>
<g transform="translate(0.000000,512.000000) scale(0.100000,-0.100000)"
fill="#000000" stroke="none">
<path d="M2350 5114 c-377 -44 -625 -113 -915 -254 -756 -370 -1283 -1091
-1410 -1930 -23 -149 -30 -439 -16 -596 62 -675 392 -1308 906 -1738 44 -36
87 -79 96 -94 25 -42 127 -105 362 -222 297 -148 533 -224 797 -256 169 -21
592 -30 720 -15 136 16 311 53 453 96 332 101 737 312 737 385 0 15 47 58 77
70 6 3 53 41 104 85 264 230 505 563 647 895 281 656 282 1384 1 2037 -251
586 -748 1083 -1329 1331 -218 93 -429 153 -650 187 -100 15 -500 28 -580 19z
m902 -2067 c72 -35 141 -110 165 -180 15 -43 18 -84 18 -227 0 -169 -1 -177
-27 -232 -35 -75 -104 -141 -174 -167 -53 -20 -73 -21 -674 -21 -601 0 -621 1
-674 21 -70 26 -139 92 -174 167 -26 55 -27 63 -27 232 0 143 3 184 18 227 20
58 79 130 133 164 78 48 79 48 739 46 l620 -2 57 -28z"/>
<path d="M2199 2800 c-72 -20 -112 -79 -111 -166 1 -156 165 -223 243 -98 73
119 -15 296 -132 264z"/>
<path d="M2856 2799 c-122 -33 -145 -232 -36 -306 117 -81 247 78 181 222 -31
68 -86 100 -145 84z"/>
</g>
</svg>
